PathFileType	4	(X/Y/Z)	45_1_50_p1_0-455.trc
DataRate	CameraRate	NumFrames	NumMarkers	Units	OrigDataRate	OrigDataStartFrame	OrigNumFrames
48.0	48.0	7	27	m	48.0	285	456
Frame#	Time	RHip			RKnee			RAnkle			RBigToe			RSmallToe			RHeel			LHip			LKnee			LAnkle			LBigToe			LSmallToe			LHeel			Neck			Head			Nose			RShoulder			RElbow			RWrist			RThumb			RIndex			RPinky			LShoulder			LElbow			LWrist			LThumb			LIndex			LPinky			
		X1	Y1	Z1	X2	Y2	Z2	X3	Y3	Z3	X4	Y4	Z4	X5	Y5	Z5	X6	Y6	Z6	X7	Y7	Z7	X8	Y8	Z8	X9	Y9	Z9	X10	Y10	Z10	X11	Y11	Z11	X12	Y12	Z12	X13	Y13	Z13	X14	Y14	Z14	X15	Y15	Z15	X16	Y16	Z16	X17	Y17	Z17	X18	Y18	Z18	X19	Y19	Z19	X20	Y20	Z20	X21	Y21	Z21	X22	Y22	Z22	X23	Y23	Z23	X24	Y24	Z24	X25	Y25	Z25	X26	Y26	Z26	X27	Y27	Z27	
285	5.9375	0.5727241579984677	0.45779419352878303	0.9123830827321805	0.5885097480476299	0.6328645750603414	1.3225731978442996	0.6072745568576908	0.8129047913950329	1.6703264476632942	0.5910735971643153	0.6882075181612876	1.7559588321386688	0.6477655398461951	0.7046909352835925	1.7431785047172124	0.5850707829546408	0.9311583290778837	1.715535494265358	0.3683821966012251	0.45923784456472705	0.9381900857236674	0.3969998367829448	0.6241833875468058	1.3324270719113414	0.4157630805988957	0.8402757987035281	1.7084621288507271	0.4350866379746724	0.69075404895974	1.7633571725587733	0.37959366692907826	0.7200496684739957	1.7645756708276294	0.42811492284708597	0.9035455422244371	1.7468761703941802	0.4248017718221786	0.272277566840417	0.43675003112992605	0.3991047266529736	0.16874868381907468	0.21666210982234374	0.4187660074150476	0.08989177318845971	0.35712479864425417	0.5772498928427802	0.298504362184417	0.515806450348762	0.6252010834957369	0.3269321623525889	0.7324452772781376	0.5255407172648752	0.2791718591204931	0.936673385214823	0.45745540525348216	0.34399252042207656	1.0306781504831901	0.4625852705203821	0.3595760233421743	1.0390458841839623	0.46322110718919574	0.36202182473673566	1.0413966714051295	0.26150711006294697	0.28577587768161306	0.5191749124572098	0.277418562624299	0.35279079901159033	0.7451197027191442	0.41301042082480827	0.2871696278685517	0.939746596966668	0.4824397218041011	0.3159728851383516	1.002319954620508	0.49257451186994833	0.3336746598069748	1.0357208874488852	0.455269907902296	0.34603697410835926	1.0365251046129944
286	5.958333333333333	0.5727213227880278	0.45781823744922995	0.9124359437936052	0.5929603012854201	0.6173078350177965	1.3203466681655762	0.6073167163629927	0.8131021496982505	1.6704083817062354	0.5909421685532218	0.6879328479423836	1.7560097534110237	0.6474867520791371	0.7042593871126012	1.743283354890465	0.5898606000809293	0.9473730920401761	1.7225452153946834	0.36844919068424975	0.4591386791444368	0.9382270365793272	0.3968235696735458	0.6242785223885612	1.3323255822192928	0.4158122349757701	0.8402927200720673	1.7084912127108323	0.43256866337928535	0.676133495659916	1.7603677247543807	0.37967054261562866	0.7196307383124942	1.764476813530964	0.43339479509038753	0.8852376533083597	1.7422204962594572	0.42482499088098596	0.2723716227429279	0.4367414604157436	0.39914442385374144	0.16872468541009453	0.21663150804108064	0.42097399059199764	0.10021474805239433	0.35429656532502807	0.5772949552541221	0.2985307621929108	0.5158132687362701	0.6252006036581526	0.3268068455485112	0.732482577574436	0.5255306824567755	0.2792560785937014	0.9366658061894887	0.4574679056776064	0.3439150050714797	1.0308293665003705	0.46256654846757284	0.35943419074032995	1.039089460496172	0.4627104299270552	0.3623476233022735	1.0384232975694248	0.2655037693256363	0.28766639133139804	0.5183387735842784	0.27748689244594316	0.3529801286419304	0.7450642117463537	0.4124341074182404	0.28687928596560436	0.9361357585438234	0.48229442795252525	0.3156719560108822	1.0023580543742965	0.4896408936583588	0.32183430039664385	1.036102529513181	0.45520914978946037	0.3459044497139541	1.0364201632980188
287	5.979166666666667	0.5727905684415795	0.4568130400376779	0.9088360868660968	0.5845154113873947	0.6318779818949901	1.3228760707574545	0.6073422677013903	0.812814150995247	1.670337822549656	0.5909618476145403	0.6878243124401476	1.7561165163927892	0.6475850288100317	0.7042620224611282	1.7433106989593796	0.5859388076441022	0.9305639919431639	1.7197200240837267	0.3687615094335142	0.45791207002701734	0.9346348840671883	0.3967404065271354	0.6244574869680387	1.3323564138201642	0.4157935443683403	0.8402022290495587	1.7083666651559042	0.4361710782234547	0.6947185132141752	1.7678931911645628	0.3796606113959745	0.7201736523859469	1.7646093517593495	0.43345592866597704	0.8848786764664802	1.7419269211106714	0.424828584192654	0.2724470992166937	0.43670197391538723	0.3991517176752296	0.16885068026216166	0.2165944276442309	0.4210101363068787	0.10008805972475963	0.3542194268732676	0.5773403124232352	0.29863711875687354	0.5157772247951489	0.6252734173946161	0.32689015167427093	0.732486319987486	0.5284387052760697	0.29046514502143816	0.9360137545721087	0.45763645048282353	0.34402353131743113	1.030747965522812	0.4625955927697711	0.35942306411344876	1.0390066539948208	0.4627496033017209	0.3618392228443408	1.0381311590459774	0.26548259685912245	0.2877704754384844	0.5183026884369952	0.2775202677890424	0.3539200280828086	0.7482460327650801	0.4124016024768632	0.2869712410359703	0.936152215413948	0.4729449222199762	0.32477754420795474	0.9995550880689991	0.4811320760966994	0.33426566141644565	1.0370986721998534	0.4551840714515255	0.34590489927046963	1.0362672007697185
288	6.0	0.5743899087759571	0.46042108029494866	0.9200677768991956	0.5936127241945142	0.6180761694021717	1.320474562780553	0.6073277266590488	0.812941099674587	1.670431607769842	0.5909605647814321	0.687971635129379	1.7561450379792993	0.6515160497931887	0.7057952887012813	1.743303149219789	0.5852897824542581	0.9326422436884083	1.7248880047499036	0.36837359019511756	0.45929892817925805	0.9384157539178529	0.3973543841370155	0.6245276222726225	1.3364171193138221	0.4157291924098577	0.839960195405953	1.7083982496036791	0.4324706256822422	0.6760004948293306	1.7603210919292358	0.3795440551231231	0.7197023733493217	1.764406063303279	0.4330112074551879	0.8843307369318387	1.7423503920652033	0.42491624567755437	0.272515704156746	0.43682894175565	0.39853748669836	0.1680332734986065	0.21292911209629972	0.42105509075426534	0.100092898132091	0.3542155927659345	0.5860585996916072	0.28697444451824355	0.5201943418020905	0.626812074836775	0.32945983459712186	0.7396957199844156	0.5284362708418991	0.29034032107614977	0.9360373282023395	0.45702653101028806	0.3547770344220943	1.0279285072715945	0.4583672796808983	0.3597806719692671	1.040114252781508	0.46271878253973137	0.36123332890629595	1.0378288337756663	0.26553116270702837	0.2881052786674098	0.5181819510422223	0.27756642845905094	0.3530662489259311	0.7449245913605033	0.4125365720465203	0.28702806777594564	0.9359960080421333	0.4727996773258638	0.3253383205927726	0.999653959648881	0.483784121540078	0.3464263292704172	1.036612988227052	0.45777960150831215	0.35809429647281443	1.033048230828783
289	6.020833333333333	0.5734345676657602	0.4579301344046182	0.9162939966502844	0.5937563808394196	0.6180363267578932	1.3204647915825216	0.6082189715868479	0.812780768203398	1.674693595787935	0.5935176302544852	0.6873426679800265	1.7520076681656744	0.652078900707791	0.7050780322269091	1.7469561216802965	0.5901450519879455	0.9489318258778752	1.7320698897009565	0.3683110346168885	0.45908313867993195	0.9381621581039121	0.3974744324345798	0.6244337247359749	1.3362942974835634	0.41577668217822955	0.8399858842629844	1.708430746935593	0.43245476804049526	0.6759801419882046	1.7602723663115625	0.3794326139350588	0.7198341914569898	1.7644124804579864	0.43306149255392046	0.884243623035658	1.7423250247965538	0.42495880104048117	0.27258052500323593	0.4367806411105696	0.40081024549811656	0.17898945769846986	0.20938774518023565	0.425175599666667	0.10097292239527217	0.3535121867149039	0.5861078999413121	0.28702449999447227	0.5201814193572984	0.6267693246080558	0.32940106018051246	0.7396823672256709	0.5284365686315052	0.2904633565665004	0.9360047917965983	0.45717694064110825	0.35458131891598677	1.0281210080793233	0.4584360081700254	0.3595750745286678	1.0401045547398013	0.46257993872034386	0.36110603844350697	1.037759287042077	0.2655908148517869	0.28802487489097767	0.5181685659853911	0.2774258038935741	0.3530594886241187	0.7448275737691622	0.40995223925331653	0.2754270779048931	0.9367341294563865	0.4763336017238048	0.3266333913778501	0.9992035156877177	0.48407952190534614	0.34617959582003743	1.03676847037361	0.45455612082880587	0.3461778922453924	1.033704002117364
290	6.041666666666667	0.5733882574616832	0.4579187056505222	0.916296198088129	0.5898058014570419	0.6347315038113069	1.3226622561245363	0.611987090957115	0.8285695962055439	1.6772238103912398	0.5933930071088968	0.6871653412719488	1.75203234723004	0.6518381733177815	0.7048873024606167	1.7470127661842507	0.5907850896200941	0.9471680278377986	1.7268607413861299	0.36857557448686284	0.45760939787440874	0.934240558065709	0.396205444755458	0.6212306779234941	1.3315144690459586	0.415049033880441	0.8418065466111202	1.7129807675812687	0.43240826179153463	0.6759147931940717	1.7603346818129004	0.37948509972176864	0.7192105810505168	1.764296570665346	0.4330567119938382	0.8841712012334164	1.7422660593854964	0.42496657273192573	0.27262259119829657	0.4367915881424088	0.4008592551579247	0.17894388681582993	0.20936684511179143	0.42523214327831566	0.10108632379582147	0.35348254063025764	0.5861831162531405	0.28725557727925777	0.5201641315682685	0.6267819451730342	0.329405082529931	0.7397199470104998	0.5284925583341603	0.2906173494256903	0.9360045425241836	0.45711672207890636	0.35449670328368005	1.0279273246792253	0.45867063758891485	0.35830825253469023	1.0363700516149648	0.462469488638295	0.3612700448821205	1.0378887542330586	0.26563712999998557	0.28795440948415413	0.5181208934669767	0.277375800675643	0.35327195195319583	0.7447194306398108	0.4099458858628479	0.27531776319122	0.9368079093752676	0.4763812674719646	0.32656598921174357	0.999148743825394	0.48786393920488824	0.34686496717084536	1.036263697319236	0.4578676036491274	0.35816088228395365	1.0332340140613636
291	6.0625	0.5734199308397535	0.45803252531761984	0.9162497751446926	0.5884657943113021	0.6319929491465094	1.3186530418866274	0.608183562789448	0.8127102083299539	1.6745972346924884	0.5894793147431514	0.6848778893009662	1.7518913841414356	0.6519945287505643	0.705029091341357	1.7469303766587128	0.5907445001294467	0.9468317183159533	1.7268453322797521	0.36831719572621313	0.45928118056819806	0.9381601134906662	0.3962132649692749	0.621388584714012	1.3315956265764841	0.41503907881698016	0.8418422092379859	1.713072924242642	0.4317892029452301	0.6777221882473423	1.7644221106397528	0.379619273567231	0.7199577896714007	1.7645844289639852	0.4331111207172942	0.8840450485595438	1.742162571788468	0.4249890111562679	0.2725796995128063	0.436756245154068	0.40085691909607457	0.17898939926074006	0.2093908379589928	0.42521991062180975	0.10106646269308353	0.3534623472611602	0.586156223375261	0.2871749722524737	0.5201731745891476	0.6267617947587466	0.32942392535101456	0.7397426494195014	0.5284965733057839	0.29059963807670447	0.9359606894182056	0.4571297180227478	0.35444107134344127	1.0278361312578068	0.4586160274642372	0.3582881477915474	1.0362171222862984	0.4621546797825265	0.36112540290504913	1.0376154268428741	0.2655818092553671	0.2878383947793773	0.5182019985111762	0.27741339601121184	0.35331362366637453	0.7447074144053297	0.40983962826773745	0.27542096985755127	0.9368619386497383	0.47300611025535677	0.3251989534891214	0.9995022763615918	0.4839625180843462	0.3465803210755237	1.0364866953000145	0.4578863928896264	0.3582491595233051	1.0331988719587095
